Coordinates
version=1
nRows=13
nColumns=36
inDegrees=yes

Units are S.I. units (second, meters, Newtons, ...)
If the header above contains a line with 'inDegrees', this indicates whether rotational values are in degrees (yes) or radians (no).

endheader
time	pelvis_tilt	pelvis_list	pelvis_rotation	pelvis_tx	pelvis_ty	pelvis_tz	hip_flexion_r	hip_adduction_r	hip_rotation_r	knee_angle_r	knee_angle_r_beta	ankle_angle_r	subtalar_angle_r	mtp_angle_r	hip_flexion_l	hip_adduction_l	hip_rotation_l	knee_angle_l	knee_angle_l_beta	ankle_angle_l	subtalar_angle_l	mtp_angle_l	lumbar_extension	lumbar_bending	lumbar_rotation	arm_flex_r	arm_add_r	arm_rot_r	elbow_flex_r	pro_sup_r	arm_flex_l	arm_add_l	arm_rot_l	elbow_flex_l	pro_sup_l
      1.82000000	    -21.66441622	     -2.48023101	      0.18676056	     -0.31650143	      0.66713122	     -0.54806268	     79.56396173	     -4.25417028	     -0.31343777	     90.29547498	      1.57595334	     29.10822162	    -16.44504708	     -7.33675151	     81.53748967	    -12.26087856	      7.92709162	     88.56574888	      1.54576392	     25.50386258	    -11.77492379	     -7.33675151	    -21.20765510	      0.86727628	     -4.69413365	      0.45221769	     -5.09910790	    -15.98903232	     29.77410788	     99.39732947	      3.85060507	     -9.52658870	    -26.22448870	     31.44403919	     98.37691283
      1.83000000	    -21.57751362	     -2.61506189	      0.16142842	     -0.31387939	      0.65917808	     -0.54804475	     80.34460795	     -4.46015700	     -0.42930146	     92.20568690	      1.60929283	     29.94402480	    -15.73825881	     -7.34019932	     82.46015690	    -12.26382661	      8.61707631	     90.51562485	      1.57979568	     26.07381117	    -11.28810943	     -7.34019932	    -22.38345389	      1.09952026	     -4.99357410	      4.52929982	     -5.88171081	    -12.77770114	     33.44712501	     99.68436971	      8.64114603	    -10.66756996	    -24.29130170	     32.10289874	     98.40939231
      1.84000000	    -21.95226873	     -2.78151512	     -0.07359480	     -0.31181980	      0.65161711	     -0.54740322	     81.46500882	     -4.26341495	     -0.43096383	     93.72983078	      1.63589415	     31.10781942	    -14.75806318	     -7.34987385	     83.77967159	    -12.46035990	      9.33558861	     92.22474585	      1.60962547	     26.81706216	    -10.44597584	     -7.34987385	    -22.84877304	      1.23379140	     -4.75151845	      8.59698000	     -7.09507551	     -8.50509862	     36.55253814	     99.24378778	     13.81514229	    -12.21621418	    -19.80765393	     31.97677873	     97.72877285
      1.85000000	    -22.37535541	     -3.02296195	     -0.29787555	     -0.31011358	      0.64468638	     -0.54662223	     82.50357199	     -3.85860727	     -0.48344083	     94.97495837	      1.65762573	     31.47431575	    -15.06094867	     -7.35123954	     85.23417675	    -12.72086062	      9.96427779	     93.81452593	      1.63737236	     26.73760572	    -10.40992624	     -7.35123954	    -23.18137697	      1.45296990	     -4.85342314	     12.88587037	     -7.68599289	     -7.06990383	     39.98587534	     99.46527867	     18.55626657	    -13.16665685	    -18.96150006	     33.42444074	     97.74115085
      1.86000000	    -22.77441587	     -3.26880074	     -0.48783288	     -0.30841444	      0.63870860	     -0.54585080	     83.32040104	     -3.40883093	     -0.54186570	     95.87180791	      1.67327871	     31.78120426	    -15.53347689	     -7.35931461	     86.58613685	    -12.93617464	     10.58371173	     95.16194599	      1.66088928	     26.63733982	    -10.32204228	     -7.35931461	    -23.38757836	      1.64459536	     -3.97592501	     16.19476334	     -9.59045300	     -3.52946078	     44.80350964	     99.39928038	     24.41780287	    -14.07802371	    -14.45364351	     33.30671859	     96.97506290
      1.87000000	    -22.92588039	     -3.18950521	     -0.40079828	     -0.30645779	      0.63386607	     -0.54501263	     83.83086845	     -3.32859929	     -0.35453323	     96.82521178	      1.68991874	     32.39212472	    -15.97618613	     -7.36119332	     87.40126771	    -12.87752023	     10.76182569	     96.25487280	      1.67996445	     26.32614714	    -10.19721070	     -7.36119332	    -23.67953928	      1.55670265	     -4.09238998	     20.40131267	    -10.47505392	     -2.23755507	     48.12191140	     99.58451730	     29.58350210	    -14.66934237	    -13.60833875	     34.68627811	     96.91299579
      1.88000000	    -23.27323978	     -3.06384078	     -0.28769753	     -0.30470912	      0.62936392	     -0.54385777	     84.57798832	     -3.30417085	     -0.16459895	     97.76100235	      1.70625137	     32.78483445	    -15.99439064	     -7.36505684	     88.12826356	    -12.88912412	     10.81572984	     97.02897622	      1.69347510	     26.70451572	    -10.03389007	     -7.36505684	    -23.48677278	      1.37901343	     -3.85733941	     24.41869589	    -11.77770596	     -0.94588303	     51.30236179	     99.59800619	     35.19104389	    -14.95212344	    -12.13923689	     35.15553741	     96.56494563
      1.89000000	    -23.52800494	     -2.82548401	     -0.06531678	     -0.30299843	      0.62549878	     -0.54309943	     85.21318054	     -3.42795501	      0.15267990	     98.69646772	      1.72257832	     33.12579956	    -16.24421117	     -7.36620866	     88.53855425	    -12.81863251	     10.60572255	     97.62507512	      1.70387899	     27.13112613	     -9.91143702	     -7.36620866	    -23.19744592	      1.20686051	     -4.09116212	     29.12013745	    -12.48985818	     -0.73448464	     53.26473707	     99.67532981	     40.44076173	    -15.07190453	    -12.01965505	     35.95492891	     96.50544215
      1.90000000	    -23.57762627	     -2.54513122	     -0.12618729	     -0.30120627	      0.62264718	     -0.54229425	     85.50728162	     -3.17871710	      0.59293511	     99.31389228	      1.73335441	     33.46479344	    -16.47111950	     -7.36928805	     88.53911652	    -13.00444033	     10.28725188	     98.06630716	      1.71157995	     28.16093146	     -9.59593625	     -7.36928805	    -23.03149937	      0.92954431	     -3.66387872	     33.63673343	    -13.81634474	     -0.38539613	     55.79259730	     99.74693368	     46.48316661	    -14.32666424	    -12.65589316	     35.24329690	     96.08037701
      1.91000000	    -23.34742488	     -2.48318947	     -0.16388916	     -0.29924748	      0.62084937	     -0.54140403	     85.29907829	     -2.78971891	      0.82520409	     99.74220226	      1.74082983	     33.89035589	    -16.97238345	     -7.37077635	     88.24956020	    -13.06149697	     10.30899523	     98.45994597	      1.71845024	     28.77679125	     -9.80052160	     -7.37077635	    -23.09505029	      0.95502064	     -3.59045787	     38.85565521	    -14.55308149	     -0.38472642	     57.80997447	     99.86021333	     51.76607186	    -14.02793483	    -13.07384268	     35.69421967	     95.94562859
      1.92000000	    -23.11918268	     -2.58256760	     -0.12317048	     -0.29733877	      0.61999810	     -0.54054505	     84.91131675	     -2.40886218	      0.87874000	     99.95567306	      1.74455560	     34.25150780	    -17.51897209	     -7.37207671	     87.87346263	    -12.99606379	     10.54546046	     98.62696827	      1.72136533	     29.38659429	    -10.08262151	     -7.37207671	    -23.07426045	      1.16652675	     -3.48196258	     44.26825009	    -15.43540396	      0.07149458	     59.80414664	    100.03789249	     57.01806373	    -13.62044718	    -13.47955359	     36.22071106	     95.81571199
      1.93000000	    -23.04592229	     -2.64856378	     -0.07458571	     -0.29548899	      0.61969467	     -0.53981771	     84.64168605	     -2.11459227	      0.93397790	    100.06123808	      1.74639806	     34.48292452	    -17.99134029	     -7.37325118	     87.59233604	    -12.91980639	     10.72814537	     98.66276103	      1.72199003	     29.82004260	    -10.26787649	     -7.37325118	    -22.78930276	      1.36014680	     -3.46144456	     49.88815635	    -16.40563316	      1.14463395	     61.69022568	    100.26069626	     62.20310314	    -13.25281317	    -13.65605152	     36.87418550	     95.72434198
      1.94000000	    -22.87091563	     -2.69339245	     -0.01134758	     -0.29362414	      0.62033110	     -0.53939883	     84.22260717	     -1.94720218	      0.91336173	    100.08492724	      1.74681151	     34.54090181	    -18.44216669	     -7.37492020	     87.17549373	    -12.86115372	     10.80919544	     98.62794827	      1.72138243	     30.10804266	    -10.39250462	     -7.37492020	    -22.54142401	      1.60464792	     -3.52314709	     55.91258496	    -17.62915490	      3.50799157	     63.44187987	    100.54305836	     67.48310255	    -13.03048555	    -13.32891291	     37.33332448	     95.63663374
